# xmcd
#
# Track frame offsets:
#	150
#	13639
#	28100
#	42768
#	55190
#	69088
#	81557
#	94411
#	106538
#	120499
#	132681
#	148018
#	162537
#	176832
#	191290
#	205457
#	218417
#	230455
#	244125
#	257598
#
# Disc length: 3625
#
# Revision: 2
# Processed by: cddbd v1.5.1PL0 Copyright (c) Steve Scherf et al.
# Submitted via: audiograbber 1.80
# Normalized: r1:DSETVAR1
#
DISCID=1a0e2714
DTITLE=Various Artist - The Great Blues Singers Disc 2
DYEAR=1900
DGENRE=
TTITLE0=Robert Johnson - I Believe I'll Dust My Broom
TTITLE1=Sonny Boy Williamson - You're An Old Lady
TTITLE2=Leadbelly - In New Orleans
TTITLE3=Pinetop and Lindberg - East Chicago Blues
TTITLE4=Mississippi Sheiks - Sitting On Top Of The World
TTITLE5=John Lee Hooker - Crawlin' Kingsnake
TTITLE6=Crippled Clarence Lofton - Pine Top's Boogie Woogie
TTITLE7=Leroy Carr - Barrelhouse Woman No.2
TTITLE8=Muddy Waters - I Be's Troubled
TTITLE9=Big Bill Broonzy - Midnight Steppers
TTITLE10=Bessie Smith - Careless Love Blues
TTITLE11=Big Joe Williams - Break 'em On Down
TTITLE12=Bukka White - Panana Limited Blues
TTITLE13=Joe Mccoy - Weed Smoker's Dream
TTITLE14=Bertha Idaho - Down On Pennsylvania Avenue
TTITLE15=Sweet Yancey - Street State Speacial
TTITLE16=Memphis Minnie and Kansas Joe - When The Levee Breaks
TTITLE17=Blind Blake - Rope Stretching Blues
TTITLE18=Kid Bailey - Rowdy Man Blues
TTITLE19=Kokomo Arnold - Milk Cow Blues
EXTD=
EXTT0=
EXTT1=
EXTT2=
EXTT3=
EXTT4=
EXTT5=
EXTT6=
EXTT7=
EXTT8=
EXTT9=
EXTT10=
EXTT11=
EXTT12=
EXTT13=
EXTT14=
EXTT15=
EXTT16=
EXTT17=
EXTT18=
EXTT19=
PLAYORDER=
